<?xml version="1.0" encoding="iso-8859-1"?>
<!-- Generator: Adobe Illustrator 19.0.0, SVG Export Plug-In . SVG Version: 6.00 Build 0)  -->
<svg version="1.1" id="Capa_1" xmlns="http://www.w3.org/2000/svg" xmlns:xlink="http://www.w3.org/1999/xlink" x="0px" y="0px"
	 viewBox="0 0 384 384" style="enable-background:new 0 0 384 384;" xml:space="preserve">
<g>
	<g>
		<path d="M64,0v80h224v144h-16V96H0v112h64v176h240v-80h80V0H64z M54.528,167.2c0,7.296-1.696,12.496-5.088,15.616
			c-3.392,3.088-8.576,4.656-15.552,4.656c-3.664,0-6.64-0.496-8.992-1.504c-2.336-0.992-4.192-2.384-5.568-4.224
			c-1.376-1.84-2.336-3.952-2.832-6.384c-0.496-2.416-0.768-4.992-0.768-7.68v-2.992H28.4v2.128c0,3.648,0.4,6.336,1.2,8.112
			c0.8,1.744,2.448,2.64,4.96,2.64c2.48,0,4.144-0.896,4.944-2.64c0.8-1.76,1.2-4.464,1.2-8.112V117.84h13.824V167.2z M96,224H80
			v-16h16V224z M105.92,182.512c-4.192,3.296-10.032,4.96-17.52,4.96c-7.808,0-13.392-1.696-16.768-5.088
			c-3.36-3.392-5.024-8.256-5.024-14.592v-2.784h13.824v2c0,1.6,0.144,3.056,0.384,4.352c0.272,1.312,0.736,2.416,1.44,3.312
			c0.704,0.912,1.664,1.616,2.848,2.128c1.168,0.496,2.672,0.768,4.448,0.768c2.128,0,4.016-0.688,5.712-2.064
			c1.68-1.376,2.544-3.52,2.544-6.384c0-1.536-0.224-2.864-0.624-3.984c-0.416-1.12-1.104-2.128-2.064-3.008
			c-0.976-0.912-2.24-1.712-3.792-2.448c-1.552-0.736-3.504-1.488-5.808-2.256c-3.056-1.024-5.712-2.16-7.968-3.376
			c-2.24-1.2-4.112-2.624-5.616-4.272c-1.504-1.632-2.608-3.52-3.312-5.664c-0.704-2.16-1.056-4.624-1.056-7.456
			c0-6.784,1.888-11.824,5.664-15.152c3.76-3.328,8.96-4.992,15.552-4.992c3.072,0,5.904,0.336,8.496,1.008
			c2.592,0.672,4.832,1.744,6.72,3.264c1.888,1.504,3.36,3.424,4.416,5.744c1.04,2.336,1.584,5.136,1.584,8.4v1.92H96.768
			c0-3.264-0.576-5.776-1.712-7.552c-1.152-1.744-3.072-2.64-5.76-2.64c-1.536,0-2.816,0.24-3.84,0.672
			c-1.008,0.448-1.84,1.04-2.448,1.776c-0.608,0.736-1.04,1.616-1.264,2.576c-0.24,0.96-0.336,1.952-0.336,2.976
			c0,2.128,0.448,3.888,1.344,5.328c0.896,1.456,2.816,2.784,5.76,3.984l10.656,4.608c2.624,1.152,4.768,2.352,6.416,3.616
			c1.664,1.248,3.008,2.592,3.984,4.032c0.992,1.44,1.68,3.008,2.064,4.752c0.384,1.712,0.576,3.648,0.576,5.744
			C112.208,173.952,110.112,179.216,105.92,182.512z M128,224h-16v-16h16V224z M160,224h-16v-16h16V224z M169.36,166.512
			c-0.48,4.352-1.552,8.096-3.168,11.232c-1.648,3.136-3.984,5.536-7.056,7.2c-3.056,1.664-7.184,2.496-12.368,2.496
			c-5.184,0-9.312-0.848-12.384-2.496c-3.056-1.664-5.424-4.064-7.04-7.2c-1.648-3.136-2.688-6.88-3.168-11.232
			c-0.48-4.336-0.72-9.152-0.72-14.384c0-5.168,0.224-9.952,0.72-14.352c0.48-4.368,1.536-8.144,3.168-11.28
			c1.632-3.12,3.984-5.584,7.04-7.344c3.072-1.744,7.2-2.64,12.384-2.64c5.184,0,9.312,0.896,12.368,2.64
			c3.072,1.76,5.424,4.224,7.056,7.344c1.632,3.136,2.688,6.912,3.168,11.28c0.464,4.384,0.72,9.168,0.72,14.352
			C170.08,157.36,169.824,162.176,169.36,166.512z M192,224h-16v-16h16V224z M224,224h-16v-16h16V224z M229.536,186.4h-15.728
			l-16.912-48h-0.192v48h-12.672v-68.544h15.936l16.704,46.96h0.192v-46.96h12.672L229.536,186.4z M256,224h-16v-16h16V224z"/>
	</g>
</g>
<g>
	<g>
		<path d="M155.984,140.432c-0.24-3.2-0.672-5.824-1.344-7.872c-0.672-2.048-1.648-3.536-2.896-4.448
			c-1.248-0.944-2.896-1.408-4.944-1.408c-2.048,0-3.696,0.464-4.96,1.408c-1.248,0.928-2.208,2.4-2.88,4.448
			c-0.672,2.048-1.12,4.672-1.344,7.872c-0.224,3.2-0.336,7.104-0.336,11.712c0,4.608,0.112,8.512,0.336,11.744
			s0.672,5.856,1.344,7.872s1.632,3.488,2.88,4.416c1.248,0.928,2.912,1.392,4.96,1.392c2.048,0,3.68-0.464,4.944-1.392
			c1.248-0.944,2.224-2.4,2.896-4.416c0.672-2.016,1.104-4.64,1.344-7.872c0.224-3.232,0.336-7.136,0.336-11.744
			C156.32,147.536,156.208,143.632,155.984,140.432z"/>
	</g>
</g>
<g>
	<g>
		<polygon points="320,320 320,384 384,320 		"/>
	</g>
</g>
<g>
</g>
<g>
</g>
<g>
</g>
<g>
</g>
<g>
</g>
<g>
</g>
<g>
</g>
<g>
</g>
<g>
</g>
<g>
</g>
<g>
</g>
<g>
</g>
<g>
</g>
<g>
</g>
<g>
</g>
</svg>
