<svg width="1081" height="192" viewBox="0 0 1081 192" fill="none" xmlns="http://www.w3.org/2000/svg">
<mask id="path-1-outside-1" maskUnits="userSpaceOnUse" x="15.7307" y="-0.157898" width="760" height="177" fill="black">
<rect fill="white" x="15.7307" y="-0.157898" width="760" height="177"/>
<path d="M114.994 50.841L67.2196 173.338L773.795 50.841H17.7307L56.4398 153.739L94.904 50.841H114.994Z"/>
<path d="M132.206 50.841H150.581V173.338H132.206V50.841ZM151.316 6.25201V30.2615H131.471V6.25201H151.316Z"/>
<path d="M254.478 83.6703C252.844 70.9306 242.555 64.5607 223.608 64.5607C204.826 64.5607 195.434 70.4406 195.434 82.2003C195.434 87.1002 197.394 90.8568 201.314 93.4701C205.397 95.92 210.46 97.9616 216.504 99.5949C222.547 101.228 229.08 102.78 236.103 104.25C243.29 105.556 249.905 107.516 255.948 110.13C261.991 112.58 266.972 116.01 270.892 120.419C274.976 124.829 277.017 130.873 277.017 138.549C277.017 150.472 272.526 159.619 263.543 165.988C254.559 172.195 242.391 175.298 227.038 175.298C210.705 175.298 197.721 171.215 188.084 163.049C179.264 155.862 174.528 146.471 173.875 134.874H192.984C194.127 146.144 200.497 153.739 212.094 157.659C216.34 158.965 220.505 159.619 224.588 159.619C228.835 159.619 232.755 159.374 236.348 158.884C239.941 158.394 243.453 157.495 246.883 156.189C254.723 153.085 258.643 147.777 258.643 140.264C258.643 135.201 256.601 131.363 252.518 128.749C248.598 125.973 243.616 123.768 237.573 122.134C231.53 120.338 224.915 118.786 217.729 117.48C210.705 116.01 204.172 114.05 198.129 111.6C192.086 109.15 187.023 105.801 182.939 101.555C179.019 97.3083 177.059 91.4284 177.059 83.9153C177.059 72.8089 181.061 64.234 189.064 58.1908C197.231 51.9843 209.235 48.8811 225.078 48.8811C240.105 48.8811 251.946 52.4743 260.603 59.6608C267.789 65.704 271.954 73.7072 273.097 83.6703H254.478Z"/>
<path d="M389.083 173.338V154.229C384.673 160.109 379.283 165.09 372.913 169.173C366.544 173.257 359.275 175.298 351.109 175.298C342.942 175.298 335.919 174.155 330.039 171.868C324.16 169.582 319.015 166.152 314.605 161.579C304.478 151.615 299.415 138.467 299.415 122.134V50.841H317.79V121.644C317.79 132.914 320.975 141.897 327.344 148.594C333.714 155.29 341.962 158.639 352.089 158.639C362.379 158.639 371.117 155.209 378.303 148.349C385.49 141.326 389.083 132.343 389.083 121.399V50.841H407.458V173.338H389.083Z"/>
<path d="M534.954 153.739C525.155 168.112 510.537 175.298 491.1 175.298C473.461 175.298 459.088 169.173 447.981 156.924C437.202 144.837 431.812 129.893 431.812 112.09C431.812 94.2867 437.202 79.3421 447.981 67.2557C459.088 55.0059 473.869 48.8811 492.325 48.8811C510.782 48.8811 524.991 56.1492 534.954 70.6856V50.841H553.329V173.338H534.954V153.739ZM493.55 158.639C506.78 158.639 517.233 154.065 524.91 144.919C532.259 136.262 535.934 125.319 535.934 112.09C535.934 98.8599 532.259 87.9169 524.91 79.2604C517.233 70.1139 506.78 65.5407 493.55 65.5407C480.484 65.5407 469.867 70.1139 461.701 79.2604C454.024 87.9169 450.186 98.8599 450.186 112.09C450.186 125.319 454.024 136.262 461.701 144.919C469.867 154.065 480.484 158.639 493.55 158.639Z"/>
<path d="M603.486 173.338H585.111V1.8421H603.486V173.338Z"/>
<path d="M635.354 50.841H653.729V173.338H635.354V50.841ZM654.464 6.25201V30.2615H634.619V6.25201H654.464Z"/>
<path d="M700.297 156.189H773.795V173.338H677.268V155.944L750.521 67.7456H678.247V50.841H773.795V67.9906L700.297 156.189Z"/>
</mask>
<path d="M114.994 50.841L67.2196 173.338L773.795 50.841H17.7307L56.4398 153.739L94.904 50.841H114.994Z" fill="#59C757"/>
<path d="M132.206 50.841H150.581V173.338H132.206V50.841ZM151.316 6.25201V30.2615H131.471V6.25201H151.316Z" fill="#59C757"/>
<path d="M254.478 83.6703C252.844 70.9306 242.555 64.5607 223.608 64.5607C204.826 64.5607 195.434 70.4406 195.434 82.2003C195.434 87.1002 197.394 90.8568 201.314 93.4701C205.397 95.92 210.46 97.9616 216.504 99.5949C222.547 101.228 229.08 102.78 236.103 104.25C243.29 105.556 249.905 107.516 255.948 110.13C261.991 112.58 266.972 116.01 270.892 120.419C274.976 124.829 277.017 130.873 277.017 138.549C277.017 150.472 272.526 159.619 263.543 165.988C254.559 172.195 242.391 175.298 227.038 175.298C210.705 175.298 197.721 171.215 188.084 163.049C179.264 155.862 174.528 146.471 173.875 134.874H192.984C194.127 146.144 200.497 153.739 212.094 157.659C216.34 158.965 220.505 159.619 224.588 159.619C228.835 159.619 232.755 159.374 236.348 158.884C239.941 158.394 243.453 157.495 246.883 156.189C254.723 153.085 258.643 147.777 258.643 140.264C258.643 135.201 256.601 131.363 252.518 128.749C248.598 125.973 243.616 123.768 237.573 122.134C231.53 120.338 224.915 118.786 217.729 117.48C210.705 116.01 204.172 114.05 198.129 111.6C192.086 109.15 187.023 105.801 182.939 101.555C179.019 97.3083 177.059 91.4284 177.059 83.9153C177.059 72.8089 181.061 64.234 189.064 58.1908C197.231 51.9843 209.235 48.8811 225.078 48.8811C240.105 48.8811 251.946 52.4743 260.603 59.6608C267.789 65.704 271.954 73.7072 273.097 83.6703H254.478Z" fill="#59C757"/>
<path d="M389.083 173.338V154.229C384.673 160.109 379.283 165.09 372.913 169.173C366.544 173.257 359.275 175.298 351.109 175.298C342.942 175.298 335.919 174.155 330.039 171.868C324.16 169.582 319.015 166.152 314.605 161.579C304.478 151.615 299.415 138.467 299.415 122.134V50.841H317.79V121.644C317.79 132.914 320.975 141.897 327.344 148.594C333.714 155.29 341.962 158.639 352.089 158.639C362.379 158.639 371.117 155.209 378.303 148.349C385.49 141.326 389.083 132.343 389.083 121.399V50.841H407.458V173.338H389.083Z" fill="#59C757"/>
<path d="M534.954 153.739C525.155 168.112 510.537 175.298 491.1 175.298C473.461 175.298 459.088 169.173 447.981 156.924C437.202 144.837 431.812 129.893 431.812 112.09C431.812 94.2867 437.202 79.3421 447.981 67.2557C459.088 55.0059 473.869 48.8811 492.325 48.8811C510.782 48.8811 524.991 56.1492 534.954 70.6856V50.841H553.329V173.338H534.954V153.739ZM493.55 158.639C506.78 158.639 517.233 154.065 524.91 144.919C532.259 136.262 535.934 125.319 535.934 112.09C535.934 98.8599 532.259 87.9169 524.91 79.2604C517.233 70.1139 506.78 65.5407 493.55 65.5407C480.484 65.5407 469.867 70.1139 461.701 79.2604C454.024 87.9169 450.186 98.8599 450.186 112.09C450.186 125.319 454.024 136.262 461.701 144.919C469.867 154.065 480.484 158.639 493.55 158.639Z" fill="#59C757"/>
<path d="M603.486 173.338H585.111V1.8421H603.486V173.338Z" fill="#59C757"/>
<path d="M635.354 50.841H653.729V173.338H635.354V50.841ZM654.464 6.25201V30.2615H634.619V6.25201H654.464Z" fill="#59C757"/>
<path d="M700.297 156.189H773.795V173.338H677.268V155.944L750.521 67.7456H678.247V50.841H773.795V67.9906L700.297 156.189Z" fill="#59C757"/>
<path d="M114.994 50.841L115.947 51.2127L116.491 49.818H114.994V50.841ZM67.2196 173.338L66.2665 172.967L65.6076 174.656L67.3944 174.346L67.2196 173.338ZM773.795 50.841H774.818V49.818H773.795V50.841ZM17.7307 50.841V49.818H16.2528L16.7732 51.2012L17.7307 50.841ZM56.4398 153.739L55.4823 154.099L56.4429 156.652L57.3981 154.097L56.4398 153.739ZM94.904 50.841V49.818H94.1942L93.9457 50.4828L94.904 50.841ZM132.206 50.841V49.818H131.183V50.841H132.206ZM150.581 50.841H151.604V49.818H150.581V50.841ZM150.581 173.338V174.361H151.604V173.338H150.581ZM132.206 173.338H131.183V174.361H132.206V173.338ZM151.316 6.25201H152.339V5.22898H151.316V6.25201ZM151.316 30.2615V31.2845H152.339V30.2615H151.316ZM131.471 30.2615H130.448V31.2845H131.471V30.2615ZM131.471 6.25201V5.22898H130.448V6.25201H131.471ZM254.478 83.6703L253.463 83.8004L253.577 84.6933H254.478V83.6703ZM201.314 93.4701L200.746 94.3213L200.767 94.3348L200.788 94.3473L201.314 93.4701ZM216.504 99.5949L216.771 98.6073L216.771 98.6073L216.504 99.5949ZM236.103 104.25L235.894 105.251L235.907 105.254L235.92 105.256L236.103 104.25ZM255.948 110.13L255.542 111.069L255.552 111.073L255.563 111.078L255.948 110.13ZM270.892 120.419L270.128 121.099L270.135 121.107L270.142 121.115L270.892 120.419ZM263.543 165.988L264.124 166.83L264.134 166.823L263.543 165.988ZM188.084 163.049L188.746 162.268L188.738 162.262L188.73 162.255L188.084 163.049ZM173.875 134.874V133.851H172.792L172.853 134.932L173.875 134.874ZM192.984 134.874L194.002 134.771L193.909 133.851H192.984V134.874ZM212.094 157.659L211.766 158.628L211.779 158.632L211.793 158.636L212.094 157.659ZM236.348 158.884L236.486 159.897L236.348 158.884ZM246.883 156.189L247.247 157.145L247.259 157.14L246.883 156.189ZM252.518 128.749L251.926 129.584L251.946 129.598L251.966 129.611L252.518 128.749ZM237.573 122.134L237.282 123.115L237.294 123.119L237.306 123.122L237.573 122.134ZM217.729 117.48L217.519 118.481L217.532 118.484L217.546 118.486L217.729 117.48ZM198.129 111.6L197.745 112.548L197.745 112.548L198.129 111.6ZM182.939 101.555L182.188 102.249L182.195 102.256L182.202 102.264L182.939 101.555ZM189.064 58.1908L189.681 59.0073L189.683 59.0053L189.064 58.1908ZM260.603 59.6608L261.261 58.8778L261.256 58.8737L260.603 59.6608ZM273.097 83.6703V84.6933H274.244L274.114 83.5536L273.097 83.6703ZM389.083 173.338H388.06V174.361H389.083V173.338ZM389.083 154.229H390.106V151.16L388.265 153.615L389.083 154.229ZM330.039 171.868L329.669 172.822L329.669 172.822L330.039 171.868ZM314.605 161.579L315.341 160.868L315.332 160.859L315.322 160.849L314.605 161.579ZM299.415 50.841V49.818H298.392V50.841H299.415ZM317.79 50.841H318.813V49.818H317.79V50.841ZM378.303 148.349L379.01 149.089L379.018 149.08L378.303 148.349ZM389.083 50.841V49.818H388.06V50.841H389.083ZM407.458 50.841H408.481V49.818H407.458V50.841ZM407.458 173.338V174.361H408.481V173.338H407.458ZM534.954 153.739H535.977V150.422L534.109 153.162L534.954 153.739ZM447.981 156.924L447.218 157.605L447.223 157.611L447.981 156.924ZM447.981 67.2557L447.223 66.5685L447.218 66.5747L447.981 67.2557ZM534.954 70.6856L534.111 71.2639L535.977 73.9877V70.6856H534.954ZM534.954 50.841V49.818H533.931V50.841H534.954ZM553.329 50.841H554.352V49.818H553.329V50.841ZM553.329 173.338V174.361H554.352V173.338H553.329ZM534.954 173.338H533.931V174.361H534.954V173.338ZM524.91 144.919L524.13 144.257L524.126 144.261L524.91 144.919ZM524.91 79.2604L524.126 79.9181L524.13 79.9225L524.91 79.2604ZM461.701 79.2604L460.938 78.579L460.936 78.5816L461.701 79.2604ZM461.701 144.919L460.936 145.598L460.938 145.6L461.701 144.919ZM603.486 173.338V174.361H604.509V173.338H603.486ZM585.111 173.338H584.088V174.361H585.111V173.338ZM585.111 1.8421V0.819075H584.088V1.8421H585.111ZM603.486 1.8421H604.509V0.819075H603.486V1.8421ZM635.354 50.841V49.818H634.331V50.841H635.354ZM653.729 50.841H654.752V49.818H653.729V50.841ZM653.729 173.338V174.361H654.752V173.338H653.729ZM635.354 173.338H634.331V174.361H635.354V173.338ZM654.464 6.25201H655.487V5.22898H654.464V6.25201ZM654.464 30.2615V31.2845H655.487V30.2615H654.464ZM634.619 30.2615H633.596V31.2845H634.619V30.2615ZM634.619 6.25201V5.22898H633.596V6.25201H634.619ZM700.297 156.189L699.511 155.534L698.113 157.212H700.297V156.189ZM773.795 156.189H774.818V155.166H773.795V156.189ZM773.795 173.338V174.361H774.818V173.338H773.795ZM677.268 173.338H676.244V174.361H677.268V173.338ZM677.268 155.944L676.481 155.29L676.244 155.574V155.944H677.268ZM750.521 67.7456L751.308 68.3993L752.7 66.7226H750.521V67.7456ZM678.247 67.7456H677.224V68.7687H678.247V67.7456ZM678.247 50.841V49.818H677.224V50.841H678.247ZM773.795 67.9906L774.581 68.6456L774.818 68.361V67.9906H773.795ZM114.04 50.4693L66.2665 172.967L68.1727 173.71L115.947 51.2127L114.04 50.4693ZM67.3944 174.346L773.97 51.849L773.621 49.833L67.0449 172.33L67.3944 174.346ZM773.795 49.818H17.7307V51.864H773.795V49.818ZM16.7732 51.2012L55.4823 154.099L57.3974 153.379L18.6882 50.4808L16.7732 51.2012ZM57.3981 154.097L95.8623 51.1992L93.9457 50.4828L55.4816 153.381L57.3981 154.097ZM94.904 51.864H114.994V49.818H94.904V51.864ZM132.206 51.864H150.581V49.818H132.206V51.864ZM149.558 50.841V173.338H151.604V50.841H149.558ZM150.581 172.315H132.206V174.361H150.581V172.315ZM133.229 173.338V50.841H131.183V173.338H133.229ZM150.293 6.25201V30.2615H152.339V6.25201H150.293ZM151.316 29.2384H131.471V31.2845H151.316V29.2384ZM132.494 30.2615V6.25201H130.448V30.2615H132.494ZM131.471 7.27503H151.316V5.22898H131.471V7.27503ZM255.492 83.5402C254.639 76.8861 251.499 71.8265 246.074 68.4683C240.7 65.1416 233.173 63.5377 223.608 63.5377V65.5837C232.99 65.5837 240.081 67.1647 244.997 70.2079C249.862 73.2195 252.683 77.7147 253.463 83.8004L255.492 83.5402ZM223.608 63.5377C214.143 63.5377 206.871 65.0132 201.935 68.1035C196.919 71.2439 194.411 75.9941 194.411 82.2003H196.457C196.457 76.6468 198.645 72.5772 203.021 69.8377C207.476 67.0481 214.291 65.5837 223.608 65.5837V63.5377ZM194.411 82.2003C194.411 87.4259 196.529 91.5093 200.746 94.3213L201.881 92.6189C198.259 90.2042 196.457 86.7746 196.457 82.2003H194.411ZM200.788 94.3473C204.973 96.8583 210.129 98.9318 216.237 100.583L216.771 98.6073C210.792 96.9914 205.822 94.9817 201.84 92.5928L200.788 94.3473ZM216.237 100.583C222.301 102.222 228.854 103.778 235.894 105.251L236.313 103.248C229.306 101.782 222.792 100.235 216.771 98.6073L216.237 100.583ZM235.92 105.256C243.038 106.551 249.577 108.489 255.542 111.069L256.354 109.191C250.232 106.543 243.541 104.562 236.286 103.243L235.92 105.256ZM255.563 111.078C261.476 113.475 266.323 116.819 270.128 121.099L271.657 119.74C267.622 115.2 262.505 111.684 256.332 109.182L255.563 111.078ZM270.142 121.115C274.005 125.287 275.994 131.056 275.994 138.549H278.04C278.04 130.689 275.946 124.372 271.643 119.724L270.142 121.115ZM275.994 138.549C275.994 150.173 271.638 158.994 262.951 165.154L264.134 166.823C273.413 160.243 278.04 150.772 278.04 138.549H275.994ZM262.961 165.147C254.205 171.196 242.265 174.275 227.038 174.275V176.321C242.518 176.321 254.913 173.194 264.124 166.83L262.961 165.147ZM227.038 174.275C210.875 174.275 198.149 170.237 188.746 162.268L187.423 163.829C197.293 172.193 210.536 176.321 227.038 176.321V174.275ZM188.73 162.255C180.139 155.255 175.533 146.133 174.896 134.817L172.853 134.932C173.522 146.808 178.39 156.469 187.438 163.842L188.73 162.255ZM173.875 135.897H192.984V133.851H173.875V135.897ZM191.966 134.977C192.556 140.786 194.5 145.704 197.835 149.68C201.166 153.652 205.832 156.622 211.766 158.628L212.421 156.689C206.759 154.776 202.442 151.988 199.403 148.365C196.368 144.747 194.556 140.232 194.002 134.771L191.966 134.977ZM211.793 158.636C216.128 159.97 220.395 160.642 224.588 160.642V158.596C220.616 158.596 216.552 157.96 212.395 156.681L211.793 158.636ZM224.588 160.642C228.874 160.642 232.84 160.394 236.486 159.897L236.21 157.87C232.669 158.353 228.796 158.596 224.588 158.596V160.642ZM236.486 159.897C240.158 159.397 243.745 158.479 247.247 157.145L246.519 155.233C243.161 156.512 239.725 157.391 236.21 157.87L236.486 159.897ZM247.259 157.14C251.309 155.537 254.424 153.333 256.526 150.488C258.633 147.634 259.666 144.208 259.666 140.264H257.62C257.62 143.833 256.692 146.818 254.88 149.272C253.061 151.735 250.297 153.737 246.506 155.237L247.259 157.14ZM259.666 140.264C259.666 134.871 257.462 130.699 253.069 127.888L251.966 129.611C255.74 132.026 257.62 135.531 257.62 140.264H259.666ZM253.109 127.914C249.066 125.051 243.966 122.803 237.84 121.147L237.306 123.122C243.267 124.733 248.13 126.895 251.926 129.584L253.109 127.914ZM237.865 121.154C231.781 119.345 225.129 117.785 217.912 116.473L217.546 118.486C224.701 119.787 231.279 121.331 237.282 123.115L237.865 121.154ZM217.938 116.478C210.969 115.02 204.495 113.076 198.513 110.652L197.745 112.548C203.85 115.023 210.442 117 217.519 118.481L217.938 116.478ZM198.513 110.652C192.589 108.25 187.65 104.978 183.677 100.846L182.202 102.264C186.395 106.625 191.583 110.05 197.745 112.548L198.513 110.652ZM183.691 100.861C179.993 96.8546 178.082 91.2507 178.082 83.9153H176.036C176.036 91.6062 178.046 97.762 182.188 102.249L183.691 100.861ZM178.082 83.9153C178.082 73.09 181.964 64.8344 189.681 59.0073L188.448 57.3744C180.158 63.6337 176.036 72.5277 176.036 83.9153H178.082ZM189.683 59.0053C197.598 52.99 209.344 49.9041 225.078 49.9041V47.858C209.126 47.858 196.863 50.9786 188.445 57.3764L189.683 59.0053ZM225.078 49.9041C239.947 49.9041 251.53 53.4584 259.949 60.448L261.256 58.8737C252.362 51.4902 240.263 47.858 225.078 47.858V49.9041ZM259.944 60.4438C266.916 66.3066 270.965 74.0641 272.081 83.7869L274.114 83.5536C272.943 73.3503 268.662 65.1014 261.261 58.8778L259.944 60.4438ZM273.097 82.6473H254.478V84.6933H273.097V82.6473ZM390.106 173.338V154.229H388.06V173.338H390.106ZM388.265 153.615C383.93 159.394 378.631 164.293 372.361 168.312L373.466 170.035C379.935 165.887 385.416 160.823 389.901 154.843L388.265 153.615ZM372.361 168.312C366.169 172.281 359.096 174.275 351.109 174.275V176.321C359.455 176.321 366.918 174.232 373.466 170.035L372.361 168.312ZM351.109 174.275C343.034 174.275 336.143 173.144 330.41 170.915L329.669 172.822C335.696 175.166 342.851 176.321 351.109 176.321V174.275ZM330.41 170.915C324.669 168.682 319.649 165.336 315.341 160.868L313.868 162.289C318.38 166.968 323.65 170.481 329.669 172.822L330.41 170.915ZM315.322 160.849C305.421 151.108 300.438 138.238 300.438 122.134H298.392C298.392 138.697 303.536 152.123 313.887 162.308L315.322 160.849ZM300.438 122.134V50.841H298.392V122.134H300.438ZM299.415 51.864H317.79V49.818H299.415V51.864ZM316.767 50.841V121.644H318.813V50.841H316.767ZM316.767 121.644C316.767 133.116 320.014 142.372 326.603 149.299L328.086 147.889C321.935 141.422 318.813 132.713 318.813 121.644H316.767ZM326.603 149.299C333.186 156.219 341.712 159.662 352.089 159.662V157.616C342.213 157.616 334.243 154.362 328.086 147.889L326.603 149.299ZM352.089 159.662C362.631 159.662 371.625 156.137 379.01 149.089L377.597 147.609C370.608 154.28 362.126 157.616 352.089 157.616V159.662ZM379.018 149.08C386.42 141.847 390.106 132.591 390.106 121.399H388.06C388.06 132.094 384.559 140.805 377.588 147.617L379.018 149.08ZM390.106 121.399V50.841H388.06V121.399H390.106ZM389.083 51.864H407.458V49.818H389.083V51.864ZM406.435 50.841V173.338H408.481V50.841H406.435ZM407.458 172.315H389.083V174.361H407.458V172.315ZM534.109 153.162C524.525 167.22 510.245 174.275 491.1 174.275V176.321C510.828 176.321 525.785 169.004 535.8 154.315L534.109 153.162ZM491.1 174.275C473.728 174.275 459.638 168.257 448.739 156.237L447.223 157.611C458.538 170.09 473.194 176.321 491.1 176.321V174.275ZM448.745 156.243C438.149 144.363 432.835 129.668 432.835 112.09H430.789C430.789 130.117 436.254 145.312 447.218 157.605L448.745 156.243ZM432.835 112.09C432.835 94.5109 438.149 79.8164 448.745 67.9366L447.218 66.5747C436.254 78.8677 430.789 94.0625 430.789 112.09H432.835ZM448.739 67.9428C459.628 55.9331 474.12 49.9041 492.325 49.9041V47.858C473.618 47.858 458.547 54.0787 447.223 66.5685L448.739 67.9428ZM492.325 49.9041C510.463 49.9041 524.349 57.0212 534.111 71.2639L535.798 70.1072C525.634 55.2773 511.1 47.858 492.325 47.858V49.9041ZM535.977 70.6856V50.841H533.931V70.6856H535.977ZM534.954 51.864H553.329V49.818H534.954V51.864ZM552.306 50.841V173.338H554.352V50.841H552.306ZM553.329 172.315H534.954V174.361H553.329V172.315ZM535.977 173.338V153.739H533.931V173.338H535.977ZM493.55 159.662C507.046 159.662 517.8 154.981 525.693 145.577L524.126 144.261C516.666 153.149 506.514 157.616 493.55 157.616V159.662ZM525.689 145.581C533.222 136.71 536.957 125.52 536.957 112.09H534.911C534.911 125.119 531.297 135.815 524.13 144.257L525.689 145.581ZM536.957 112.09C536.957 98.6596 533.222 87.4694 525.689 78.5982L524.13 79.9225C531.297 88.3643 534.911 99.0603 534.911 112.09H536.957ZM525.693 78.6027C517.8 69.1978 507.046 64.5177 493.55 64.5177V66.5637C506.514 66.5637 516.666 71.03 524.126 79.9181L525.693 78.6027ZM493.55 64.5177C480.214 64.5177 469.312 69.1996 460.938 78.579L462.464 79.9417C470.423 71.0283 480.754 66.5637 493.55 66.5637V64.5177ZM460.936 78.5816C453.069 87.452 449.163 98.6481 449.163 112.09H451.209C451.209 99.0718 454.98 88.3817 462.466 79.9391L460.936 78.5816ZM449.163 112.09C449.163 125.531 453.069 136.727 460.936 145.598L462.466 144.24C454.98 135.798 451.209 125.108 451.209 112.09H449.163ZM460.938 145.6C469.312 154.98 480.214 159.662 493.55 159.662V157.616C480.754 157.616 470.423 153.151 462.464 144.238L460.938 145.6ZM603.486 172.315H585.111V174.361H603.486V172.315ZM586.134 173.338V1.8421H584.088V173.338H586.134ZM585.111 2.86513H603.486V0.819075H585.111V2.86513ZM602.463 1.8421V173.338H604.509V1.8421H602.463ZM635.354 51.864H653.729V49.818H635.354V51.864ZM652.706 50.841V173.338H654.752V50.841H652.706ZM653.729 172.315H635.354V174.361H653.729V172.315ZM636.377 173.338V50.841H634.331V173.338H636.377ZM653.441 6.25201V30.2615H655.487V6.25201H653.441ZM654.464 29.2384H634.619V31.2845H654.464V29.2384ZM635.642 30.2615V6.25201H633.596V30.2615H635.642ZM634.619 7.27503H654.464V5.22898H634.619V7.27503ZM700.297 157.212H773.795V155.166H700.297V157.212ZM772.772 156.189V173.338H774.818V156.189H772.772ZM773.795 172.315H677.268V174.361H773.795V172.315ZM678.291 173.338V155.944H676.244V173.338H678.291ZM678.055 156.597L751.308 68.3993L749.734 67.092L676.481 155.29L678.055 156.597ZM750.521 66.7226H678.247V68.7687H750.521V66.7226ZM679.271 67.7456V50.841H677.224V67.7456H679.271ZM678.247 51.864H773.795V49.818H678.247V51.864ZM772.772 50.841V67.9906H774.818V50.841H772.772ZM773.009 67.3357L699.511 155.534L701.083 156.844L774.581 68.6456L773.009 67.3357Z" fill="#59C757" mask="url(#path-1-outside-1)"/>
<path d="M810.615 32.8067V85.6847H898.268V103.072H810.615V156.189H908.749V173.338H792.75V15.657H908.749V32.8067H810.615Z" fill="#59C757"/>
<path d="M955.529 173.338H937.664V15.657H1013.17C1029.21 15.657 1042.07 20.1032 1051.76 28.9956C1061.44 37.7293 1066.29 49.7181 1066.29 64.9622C1066.29 84.6525 1058.11 98.0705 1041.75 105.216C1037.15 107.28 1032.62 108.789 1028.18 109.742L1069.62 173.338H1048.42L1010.31 112.838H955.529V173.338ZM955.529 95.9268H1010.07C1026.91 95.9268 1038.5 90.6866 1044.85 80.2063C1047.23 76.2365 1048.42 71.1551 1048.42 64.9622C1048.42 54.9583 1045.01 47.098 1038.18 41.3815C1031.35 35.5061 1022.3 32.5685 1011.03 32.5685H955.529V95.9268Z" fill="#59C757"/>
<path d="M142.428 61.0713H160.802V183.569H142.428V61.0713ZM161.537 16.4823V40.4917H141.693V16.4823H161.537Z" fill="black"/>
<path d="M264.699 93.9005C263.066 81.1608 252.776 74.791 233.83 74.791C215.047 74.791 205.656 80.6708 205.656 92.4306C205.656 97.3305 207.616 101.087 211.535 103.7C215.619 106.15 220.682 108.192 226.725 109.825C232.768 111.458 239.302 113.01 246.325 114.48C253.511 115.787 260.126 117.747 266.169 120.36C272.212 122.81 277.194 126.24 281.114 130.65C285.197 135.06 287.239 141.103 287.239 148.779C287.239 160.702 282.747 169.849 273.764 176.219C264.781 182.425 252.613 185.529 237.26 185.529C220.927 185.529 207.942 181.445 198.306 173.279C189.486 166.092 184.749 156.701 184.096 145.104H203.206C204.349 156.374 210.719 163.969 222.315 167.889C226.562 169.196 230.727 169.849 234.81 169.849C239.057 169.849 242.976 169.604 246.57 169.114C250.163 168.624 253.675 167.726 257.104 166.419C264.944 163.316 268.864 158.007 268.864 150.494C268.864 145.431 266.823 141.593 262.739 138.98C258.819 136.203 253.838 133.998 247.795 132.365C241.751 130.568 235.137 129.016 227.95 127.71C220.927 126.24 214.394 124.28 208.351 121.83C202.307 119.38 197.244 116.032 193.161 111.785C189.241 107.539 187.281 101.659 187.281 94.1455C187.281 83.0391 191.283 74.4643 199.286 68.4211C207.452 62.2146 219.457 59.1113 235.3 59.1113C250.326 59.1113 262.168 62.7046 270.824 69.8911C278.011 75.9343 282.176 83.9374 283.319 93.9005H264.699Z" fill="black"/>
<path d="M399.305 183.569V164.459C394.895 170.339 389.505 175.32 383.135 179.404C376.765 183.487 369.497 185.529 361.33 185.529C353.164 185.529 346.141 184.385 340.261 182.099C334.381 179.812 329.236 176.382 324.826 171.809C314.7 161.846 309.637 148.698 309.637 132.365V61.0713H328.011V131.875C328.011 143.144 331.196 152.128 337.566 158.824C343.936 165.521 352.184 168.869 362.31 168.869C372.6 168.869 381.338 165.439 388.525 158.579C395.711 151.556 399.305 142.573 399.305 131.63V61.0713H417.679V183.569H399.305Z" fill="black"/>
<path d="M545.176 163.969C535.376 178.342 520.758 185.529 501.322 185.529C483.682 185.529 469.309 179.404 458.203 167.154C447.423 155.068 442.033 140.123 442.033 122.32C442.033 104.517 447.423 89.5723 458.203 77.4859C469.309 65.2362 484.091 59.1113 502.547 59.1113C521.003 59.1113 535.213 66.3795 545.176 80.9158V61.0713H563.55V183.569H545.176V163.969ZM503.772 168.869C517.002 168.869 527.455 164.296 535.131 155.149C542.481 146.493 546.156 135.55 546.156 122.32C546.156 109.09 542.481 98.1471 535.131 89.4906C527.455 80.3442 517.002 75.7709 503.772 75.7709C490.705 75.7709 480.089 80.3442 471.923 89.4906C464.246 98.1471 460.408 109.09 460.408 122.32C460.408 135.55 464.246 146.493 471.923 155.149C480.089 164.296 490.705 168.869 503.772 168.869Z" fill="black"/>
<path d="M613.707 183.569H595.333V12.0724H613.707V183.569Z" fill="black"/>
<path d="M645.576 61.0713H663.95V183.569H645.576V61.0713ZM664.685 16.4823V40.4917H644.841V16.4823H664.685Z" fill="black"/>
<path d="M710.518 166.419H784.017V183.569H687.489V166.174L760.742 77.9759H688.469V61.0713H784.017V78.2209L710.518 166.419Z" fill="black"/>
<path d="M19.4185 49.4799C18.6668 49.4799 18.0574 50.0893 18.0574 50.841C18.0574 51.5927 18.6668 52.2021 19.4185 52.2021V49.4799ZM792.512 50.841L778.902 42.9828V58.6992L792.512 50.841ZM19.4185 52.2021H780.263V49.4799H19.4185V52.2021Z" fill="black"/>
<path d="M1072.9 176.064C1073.65 176.064 1074.26 175.455 1074.26 174.703C1074.26 173.951 1073.65 173.342 1072.9 173.342L1072.9 176.064ZM65.6951 174.703L79.3059 182.561L79.3059 166.845L65.6951 174.703ZM1072.9 173.342L77.9448 173.342L77.9448 176.064L1072.9 176.064L1072.9 173.342Z" fill="black"/>
<circle cx="1063.15" cy="174.484" r="16.1181" fill="#59C757" stroke="black" stroke-width="2.72216"/>
<circle cx="17.8424" cy="51.9872" r="16.1181" fill="#59C757" stroke="black" stroke-width="2.72216"/>
</svg>
